<svg xmlns="http://www.w3.org/2000/svg" xmlns:xlink="http://www.w3.org/1999/xlink" id="Layer_1" x="0px" y="0px" viewBox="0 0 453.8 105" style="enable-background:new 0 0 453.8 105;" xml:space="preserve"><style type="text/css">	.st0{fill:#80d2e7;}	.st1{fill:#80d2e7;stroke:#80d2e7;stroke-width:0.5;stroke-miterlimit:10;}	.st2{fill:#7F7F7F;stroke:#7F7F7F;stroke-width:0.5;stroke-miterlimit:10;}	.st3{fill:#7F7F7F;}</style><g>	<g>		<path class="st0" d="M16.6,30.7c-0.5-3.2-3.3-5.6-6.7-5.6c-3.3,0-6.1,2.4-6.7,5.6H3.2v35.5c0,7.4,6.1,13.5,13.5,13.5v-49H16.6z"></path>		<path class="st0" d="M35.1,30.7c-0.5-3.2-3.3-5.6-6.7-5.6c-3.3,0-6.1,2.4-6.7,5.6h-0.1v68.7c7.4,0,13.5-6.1,13.5-13.6v-55H35.1z"></path>	</g>	<g>		<path class="st0" d="M41.6,65.1V38.5c0-7.4,6.1-13.5,13.5-13.5v53.7C47.7,78.7,41.6,72.6,41.6,65.1z"></path>		<path class="st0" d="M73.6,10.1c0-3.7-3-6.8-6.8-6.8s-6.8,3-6.8,6.8h0v68.7c7.4,0,13.5-6.1,13.5-13.6L73.6,10.1L73.6,10.1z"></path>	</g></g><g>	<path class="st1" d="M105.8,39.8l-8.3,18.1c-0.7,1.6-2,2.4-3.3,2.4c-1.1,0-2.3-0.5-3.1-1.4l0.7-1.3c0.5,0.6,1.3,1,2.1,1  c0.8,0,1.5-0.4,2-1.4l1.4-2.8l-6.6-14.6h1.9l5.7,12.7l5.7-12.7H105.8z"></path>	<path class="st1" d="M94.2,60.9c-1.2,0-2.6-0.6-3.5-1.5L90.4,59l1.4-2.4l0.5,0.7c0.4,0.5,1,0.8,1.6,0.8c0.6,0,1.1-0.4,1.5-1.1  l1.2-2.5l-6.9-15.2H93l5.3,11.9l5.3-11.9h3.2l-8.7,19C97.3,59.9,95.8,60.9,94.2,60.9z M91.9,58.8c0.6,0.5,1.5,0.9,2.3,0.9  c1.2,0,2.2-0.8,2.8-2l8-17.3h-0.5L98.3,54l-6.1-13.6h-0.6L98,54.5l-1.5,3c-0.7,1.5-1.8,1.8-2.6,1.8c-0.7,0-1.4-0.2-1.9-0.7  L91.9,58.8z"></path></g><g>	<path class="st1" d="M111.8,47.1c0-4.4,3.3-7.7,7.8-7.7c4.4,0,7.7,3.3,7.7,7.7c0,4.4-3.3,7.7-7.7,7.7  C115.1,54.8,111.8,51.5,111.8,47.1z M125.6,47.1c0-3.5-2.6-6.1-6-6.1c-3.5,0-6,2.6-6,6.1c0,3.5,2.6,6.1,6,6.1  C123,53.2,125.6,50.6,125.6,47.1z"></path>	<path class="st1" d="M119.6,55.4c-4.8,0-8.4-3.6-8.4-8.3s3.6-8.3,8.4-8.3c4.8,0,8.3,3.6,8.3,8.3S124.3,55.4,119.6,55.4z   M119.6,40.1c-4.1,0-7.2,3-7.2,7.1c0,4,3.1,7.1,7.2,7.1c4.1,0,7.1-3,7.1-7.1C126.7,43.1,123.6,40.1,119.6,40.1z M119.6,53.8  c-3.8,0-6.6-2.9-6.6-6.7s2.9-6.7,6.6-6.7c3.8,0,6.6,2.9,6.6,6.7S123.3,53.8,119.6,53.8z M119.6,41.7c-3.1,0-5.4,2.4-5.4,5.5  s2.3,5.5,5.4,5.5c3.1,0,5.4-2.4,5.4-5.5S122.7,41.7,119.6,41.7z"></path></g><g>	<path class="st1" d="M135.6,48.7v-8.9h1.7v8.7c0,2.8,1.9,4.7,4.8,4.7c2.9,0,4.8-1.9,4.8-4.7v-8.7h1.7v8.9c0,3.7-2.6,6.1-6.5,6.1  C138.2,54.8,135.6,52.4,135.6,48.7z"></path>	<path class="st1" d="M142.1,55.4c-4.2,0-7.1-2.7-7.1-6.7v-9.5h2.9v9.3c0,2.5,1.7,4.1,4.2,4.1c2.6,0,4.2-1.6,4.2-4.1v-9.3h2.9v9.5  C149.2,52.7,146.4,55.4,142.1,55.4z M136.2,40.4v8.3c0,3.4,2.3,5.5,5.9,5.5c3.6,0,5.9-2.2,5.9-5.5v-8.3h-0.5v8.1  c0,3.2-2.2,5.3-5.4,5.3c-3.3,0-5.4-2.1-5.4-5.3v-8.1H136.2z"></path></g><g>	<path class="st1" d="M165.5,39.6v1.7h-0.4c-3.4,0-5.5,2.2-5.5,5.6v7.6h-1.7V39.8h1.7v3.1c1.1-2.1,3-3.3,5.5-3.3H165.5z"></path>	<path class="st1" d="M160.2,55.1h-2.9V39.2h2.9V41c1.2-1.3,3-2,4.9-2h1v2.9h-1c-3,0-4.9,1.9-4.9,5V55.1z M158.5,53.9h0.5v-7  c0-0.8,0.1-1.5,0.3-2.1l-0.3,0.5v-5h-0.5V53.9z M164.9,40.2c-2,0-3.6,0.9-4.5,2.5c1-1.2,2.6-1.9,4.5-2V40.2z"></path></g><g>	<path class="st2" d="M187,33.8v20.7h-1.7v-3.4c-1.2,2.3-3.5,3.7-6.3,3.7c-4.3,0-7.5-3.3-7.5-7.7c0-4.4,3.2-7.7,7.5-7.7  c2.8,0,5.1,1.5,6.3,3.7v-9.4H187z M185.3,47.1c0-3.5-2.6-6.1-6-6.1c-3.4,0-6,2.6-6,6.1c0,3.5,2.6,6.1,6,6.1  C182.7,53.2,185.3,50.6,185.3,47.1z"></path>	<path class="st2" d="M179,55.4c-4.6,0-8.1-3.6-8.1-8.3s3.5-8.3,8.1-8.3c2.3,0,4.3,0.9,5.7,2.5v-8.2h2.9v21.9h-2.9V53  C183.3,54.5,181.3,55.4,179,55.4z M179,40.1c-3.9,0-6.9,3-6.9,7.1c0,4,2.9,7.1,6.9,7.1c2.1,0,4-0.9,5.3-2.6c-1.2,1.3-2.9,2.1-5,2.1  c-3.8,0-6.6-2.9-6.6-6.7s2.8-6.7,6.6-6.7c2,0,3.8,0.8,5,2.1C183,41,181.1,40.1,179,40.1z M185.9,53.9h0.5V34.4h-0.5v11.2l-0.3-0.6  c0.2,0.7,0.3,1.4,0.3,2.2c0,0.8-0.1,1.5-0.3,2.2l0.3-0.6V53.9z M179.3,41.7c-3.1,0-5.4,2.4-5.4,5.5s2.3,5.5,5.4,5.5  c3.1,0,5.4-2.4,5.4-5.5S182.4,41.7,179.3,41.7z"></path></g><g>	<path class="st2" d="M196.1,35.1c0-0.7,0.5-1.2,1.2-1.2c0.7,0,1.2,0.5,1.2,1.2c0,0.7-0.5,1.2-1.2,1.2  C196.6,36.3,196.1,35.8,196.1,35.1z M196.4,39.8h1.7v14.7h-1.7V39.8z"></path>	<path class="st2" d="M198.7,55.1h-2.9V39.2h2.9V55.1z M197,53.9h0.5V40.4H197V53.9z M197.3,36.9c-1,0-1.8-0.8-1.8-1.8  c0-1,0.8-1.8,1.8-1.8c1,0,1.8,0.8,1.8,1.8C199.1,36.1,198.3,36.9,197.3,36.9z M197.3,34.6c-0.3,0-0.6,0.3-0.6,0.6  c0,0.3,0.3,0.6,0.6,0.6c0.4,0,0.6-0.3,0.6-0.6C197.9,34.8,197.6,34.6,197.3,34.6z"></path></g><g>	<path class="st2" d="M222.1,39.8v14.7h-1.7v-3.4c-1.2,2.3-3.5,3.7-6.3,3.7c-4.3,0-7.5-3.3-7.5-7.7c0-4.4,3.2-7.7,7.5-7.7  c2.8,0,5.1,1.5,6.3,3.7v-3.4H222.1z M220.4,47.1c0-3.5-2.6-6.1-6-6.1c-3.4,0-6,2.6-6,6.1c0,3.5,2.6,6.1,6,6.1  C217.8,53.2,220.4,50.6,220.4,47.1z"></path>	<path class="st2" d="M214.1,55.4c-4.6,0-8.1-3.6-8.1-8.3s3.5-8.3,8.1-8.3c2.3,0,4.3,0.9,5.7,2.5v-2.1h2.9v15.9h-2.9V53  C218.4,54.5,216.4,55.4,214.1,55.4z M214.1,40.1c-3.9,0-6.9,3-6.9,7.1c0,4,2.9,7.1,6.9,7.1c2.1,0,4-0.9,5.3-2.6  c-1.2,1.3-2.9,2.1-5,2.1c-3.8,0-6.6-2.9-6.6-6.7s2.8-6.7,6.6-6.7c2,0,3.8,0.8,5,2.1C218.1,41,216.2,40.1,214.1,40.1z M221,53.9h0.5  V40.4H221v5.2l-0.3-0.6c0.2,0.7,0.3,1.4,0.3,2.2c0,0.8-0.1,1.5-0.3,2.2l0.3-0.6V53.9z M214.4,41.7c-3.1,0-5.4,2.4-5.4,5.5  s2.3,5.5,5.4,5.5c3.1,0,5.4-2.4,5.4-5.5S217.5,41.7,214.4,41.7z"></path></g><g>	<path class="st2" d="M254.6,45v9.4h-1.7v-9c0-2.7-1.7-4.4-4.4-4.4c-2.8,0-4.6,1.8-4.6,4.5v8.9h-1.7v-9c0-2.7-1.8-4.4-4.4-4.4  c-2.8,0-4.6,1.8-4.6,4.5v8.9h-1.7V39.8h1.7v2.4c1-1.8,2.8-2.8,5.1-2.8c2.5,0,4.3,1.2,5.2,3.2c1-2,2.9-3.2,5.5-3.2  C252.4,39.5,254.6,41.7,254.6,45z"></path>	<path class="st2" d="M255.2,55.1h-2.9v-9.6c0-2.4-1.5-3.8-3.8-3.8c-2.4,0-4,1.5-4,3.9v9.5h-2.9v-9.6c0-2.3-1.5-3.8-3.8-3.8  c-2.5,0-4,1.5-4,3.9v9.5h-2.9V39.2h2.9v1.3c1.2-1.1,2.7-1.7,4.5-1.7c2.2,0,4.1,1,5.2,2.6c1.2-1.7,3.1-2.6,5.5-2.6  c3.7,0,6.2,2.5,6.2,6.2V55.1z M253.5,53.9h0.5V45c0-3-2-5-5-5c-2,0-3.5,0.7-4.5,2.1c0.9-1.1,2.3-1.7,4-1.7c3,0,5,2,5,5V53.9z   M242.8,53.9h0.5v-8.3c0-0.6,0.1-1.1,0.2-1.6l-0.1,0.2l-0.5-1.3c-0.7-1.8-2.4-2.8-4.6-2.8c-1.5,0-2.8,0.5-3.7,1.4  c0.9-0.6,2-1,3.2-1c3,0,5,2,5,5V53.9z M232.1,53.9h0.5v-8.3c0-0.5,0.1-1,0.2-1.4l-0.2,0.3v-4h-0.5V53.9z"></path></g><g>	<path class="st2" d="M262.9,47.1c0-4.4,3.3-7.7,7.8-7.7c4.4,0,7.7,3.3,7.7,7.7c0,4.4-3.3,7.7-7.7,7.7  C266.2,54.8,262.9,51.5,262.9,47.1z M276.7,47.1c0-3.5-2.6-6.1-6-6.1c-3.5,0-6,2.6-6,6.1c0,3.5,2.6,6.1,6,6.1  C274.1,53.2,276.7,50.6,276.7,47.1z"></path>	<path class="st2" d="M270.7,55.4c-4.8,0-8.4-3.6-8.4-8.3s3.6-8.3,8.4-8.3c4.8,0,8.3,3.6,8.3,8.3S275.4,55.4,270.7,55.4z   M270.7,40.1c-4.1,0-7.2,3-7.2,7.1c0,4,3.1,7.1,7.2,7.1c4.1,0,7.1-3,7.1-7.1C277.8,43.1,274.7,40.1,270.7,40.1z M270.7,53.8  c-3.8,0-6.6-2.9-6.6-6.7s2.9-6.7,6.6-6.7c3.8,0,6.6,2.9,6.6,6.7S274.4,53.8,270.7,53.8z M270.7,41.7c-3.1,0-5.4,2.4-5.4,5.5  s2.3,5.5,5.4,5.5c3.1,0,5.4-2.4,5.4-5.5S273.8,41.7,270.7,41.7z"></path></g><g>	<path class="st2" d="M300.4,45.6v8.9h-1.7v-8.4c0-3-2-5-5-5c-3.1,0-5.2,2-5.2,5.1v8.3h-1.7V39.8h1.7v2.8c1.1-2,3.1-3.1,5.7-3.1  C297.9,39.5,300.4,41.9,300.4,45.6z"></path>	<path class="st2" d="M301,55.1h-2.9v-9c0-2.7-1.7-4.4-4.4-4.4c-2.8,0-4.6,1.8-4.6,4.5v8.9h-2.9V39.2h2.9v1.6c1.3-1.2,3-1.9,5.1-1.9  c4,0,6.8,2.7,6.8,6.7V55.1z M299.4,53.9h0.5v-8.3c0-3.4-2.2-5.5-5.6-5.5c-1.8,0-3.3,0.6-4.3,1.6c1-0.8,2.3-1.2,3.8-1.2  c3.3,0,5.6,2.3,5.6,5.6V53.9z M287.5,53.9h0.5v-7.7c0-0.6,0.1-1.1,0.2-1.6l-0.2,0.3v-4.5h-0.5V53.9z"></path></g><g>	<path class="st2" d="M324.2,33.8v20.7h-1.7v-3.4c-1.2,2.3-3.5,3.7-6.3,3.7c-4.3,0-7.5-3.3-7.5-7.7c0-4.4,3.2-7.7,7.5-7.7  c2.8,0,5.1,1.5,6.3,3.7v-9.4H324.2z M322.6,47.1c0-3.5-2.6-6.1-6-6.1c-3.4,0-6,2.6-6,6.1c0,3.5,2.6,6.1,6,6.1  C320,53.2,322.6,50.6,322.6,47.1z"></path>	<path class="st2" d="M316.2,55.4c-4.6,0-8.1-3.6-8.1-8.3s3.5-8.3,8.1-8.3c2.3,0,4.3,0.9,5.7,2.5v-8.2h2.9v21.9H322V53  C320.5,54.5,318.5,55.4,316.2,55.4z M316.2,40.1c-3.9,0-6.9,3-6.9,7.1c0,4,2.9,7.1,6.9,7.1c2.1,0,4-0.9,5.3-2.6  c-1.2,1.3-2.9,2.1-5,2.1c-3.8,0-6.6-2.9-6.6-6.7s2.8-6.7,6.6-6.7c2,0,3.8,0.8,5,2.1C320.3,41,318.4,40.1,316.2,40.1z M323.2,53.9  h0.5V34.4h-0.5v11.2l-0.3-0.6c0.2,0.7,0.3,1.4,0.3,2.2c0,0.8-0.1,1.5-0.3,2.2l0.3-0.6V53.9z M316.5,41.7c-3.1,0-5.4,2.4-5.4,5.5  s2.3,5.5,5.4,5.5c3.1,0,5.4-2.4,5.4-5.5S319.6,41.7,316.5,41.7z"></path></g><g>	<path class="st2" d="M332.5,52.5l0.9-1.2c1.1,1.2,2.8,2,4.8,2c2.3,0,4-1,4-2.6c0-1.8-1.9-2.3-4.1-2.8c-2.5-0.6-5.2-1.4-5.2-4.3  c0-2.7,2.5-4.1,5.4-4.1c2.2,0,4,0.9,5.2,2l-0.9,1.2c-1-1.1-2.5-1.8-4.2-1.8c-2,0-3.7,0.9-3.7,2.5c0,1.8,2,2.3,4.1,2.8  c2.4,0.6,5.2,1.3,5.2,4.2c0,2.7-2.5,4.3-5.7,4.3C335.8,54.8,333.8,53.8,332.5,52.5z"></path>	<path class="st2" d="M338.3,55.4c-2.4,0-4.7-0.9-6.2-2.5l-0.4-0.4l1.7-2.2l0.5,0.5c1,1.2,2.6,1.8,4.4,1.8c2,0,3.4-0.8,3.4-2  c0-1.3-1.4-1.7-3.6-2.2c-2.5-0.6-5.7-1.5-5.7-4.8c0-2.8,2.5-4.7,6-4.7c2.2,0,4.2,0.8,5.6,2.2l0.4,0.4l-1.7,2.2l-0.5-0.5  c-0.9-1-2.3-1.6-3.8-1.6c-1.5,0-3.1,0.6-3.1,1.9c0,1.3,1.5,1.7,3.7,2.3c2.4,0.6,5.6,1.4,5.6,4.8C344.6,53.4,342,55.4,338.3,55.4z   M333.3,52.4c1.3,1.1,3.1,1.8,5,1.8c2.6,0,5.1-1.2,5.1-3.7c0-2.3-1.9-2.9-4.7-3.6c-2-0.5-4.6-1.1-4.6-3.4c0-1.8,1.8-3.1,4.3-3.1  c1.6,0,3,0.5,4.1,1.5l0.2-0.3c-1.2-1-2.7-1.5-4.4-1.5c-2.4,0-4.8,1.1-4.8,3.5c0,2.3,2,3,4.8,3.7c2,0.5,4.5,1.1,4.5,3.4  c0,1.9-1.9,3.2-4.6,3.2c-1.8,0-3.5-0.6-4.8-1.7L333.3,52.4z"></path></g><g>	<path class="st1" d="M352,53.3c0-0.8,0.6-1.4,1.4-1.4c0.8,0,1.4,0.6,1.4,1.4c0,0.8-0.6,1.4-1.4,1.4C352.6,54.6,352,54,352,53.3z"></path>	<path class="st1" d="M353.4,55.2c-1.1,0-2-0.8-2-2c0-1.1,0.8-2,2-2c1.1,0,2,0.9,2,2C355.3,54.4,354.5,55.2,353.4,55.2z M353.4,52.5  c-0.4,0-0.8,0.3-0.8,0.8c0,0.4,0.3,0.8,0.8,0.8c0.5,0,0.8-0.3,0.8-0.8C354.2,52.8,353.8,52.5,353.4,52.5z"></path></g><g>	<path class="st1" d="M362.2,47.1c0-4.4,3.3-7.7,7.8-7.7c2.9,0,5.4,1.4,6.7,3.7l-1.5,0.9c-1-1.8-2.9-3-5.2-3c-3.5,0-6,2.6-6,6.1  c0,3.5,2.6,6.1,6,6.1c2.3,0,4.2-1.2,5.2-3l1.5,0.9c-1.3,2.2-3.8,3.7-6.7,3.7C365.5,54.8,362.2,51.5,362.2,47.1z"></path>	<path class="st1" d="M370,55.4c-4.8,0-8.4-3.6-8.4-8.3s3.6-8.3,8.4-8.3c3,0,5.7,1.5,7.2,4l0.3,0.5l-2.5,1.5l-0.3-0.5  c-0.9-1.7-2.7-2.7-4.7-2.7c-3.1,0-5.4,2.4-5.4,5.5s2.3,5.5,5.4,5.5c2,0,3.7-1,4.7-2.7l0.3-0.5l2.5,1.5l-0.3,0.5  C375.7,53.9,373,55.4,370,55.4z M370,40.1c-4.1,0-7.2,3-7.2,7.1c0,4,3.1,7.1,7.2,7.1c2.4,0,4.5-1.1,5.8-2.9l-0.4-0.3  c-1.2,1.7-3.2,2.7-5.4,2.7c-3.8,0-6.6-2.9-6.6-6.7s2.9-6.7,6.6-6.7c2.2,0,4.2,1,5.4,2.7l0.4-0.3C374.5,41.1,372.4,40.1,370,40.1z"></path></g><g>	<path class="st1" d="M383.9,47.1c0-4.4,3.3-7.7,7.8-7.7c4.4,0,7.7,3.3,7.7,7.7c0,4.4-3.3,7.7-7.7,7.7  C387.3,54.8,383.9,51.5,383.9,47.1z M397.7,47.1c0-3.5-2.6-6.1-6-6.1c-3.5,0-6,2.6-6,6.1c0,3.5,2.6,6.1,6,6.1  C395.2,53.2,397.7,50.6,397.7,47.1z"></path>	<path class="st1" d="M391.7,55.4c-4.8,0-8.4-3.6-8.4-8.3s3.6-8.3,8.4-8.3c4.8,0,8.3,3.6,8.3,8.3S396.5,55.4,391.7,55.4z   M391.7,40.1c-4.1,0-7.2,3-7.2,7.1c0,4,3.1,7.1,7.2,7.1c4.1,0,7.1-3,7.1-7.1C398.8,43.1,395.8,40.1,391.7,40.1z M391.7,53.8  c-3.8,0-6.6-2.9-6.6-6.7s2.9-6.7,6.6-6.7c3.8,0,6.6,2.9,6.6,6.7S395.5,53.8,391.7,53.8z M391.7,41.7c-3.1,0-5.4,2.4-5.4,5.5  s2.3,5.5,5.4,5.5c3.1,0,5.4-2.4,5.4-5.5S394.8,41.7,391.7,41.7z"></path></g><g>	<path class="st1" d="M431,45v9.4h-1.7v-9c0-2.7-1.7-4.4-4.4-4.4c-2.8,0-4.6,1.8-4.6,4.5v8.9h-1.7v-9c0-2.7-1.8-4.4-4.4-4.4  c-2.8,0-4.6,1.8-4.6,4.5v8.9h-1.7V39.8h1.7v2.4c1-1.8,2.8-2.8,5.1-2.8c2.5,0,4.3,1.2,5.2,3.2c1-2,2.9-3.2,5.5-3.2  C428.8,39.5,431,41.7,431,45z"></path>	<path class="st1" d="M431.6,55.1h-2.9v-9.6c0-2.4-1.5-3.8-3.8-3.8c-2.4,0-4,1.5-4,3.9v9.5H418v-9.6c0-2.3-1.5-3.8-3.8-3.8  c-2.5,0-4,1.5-4,3.9v9.5h-2.9V39.2h2.9v1.3c1.2-1.1,2.7-1.7,4.5-1.7c2.2,0,4.1,1,5.2,2.6c1.2-1.7,3.1-2.6,5.5-2.6  c3.7,0,6.2,2.5,6.2,6.2V55.1z M429.9,53.9h0.5V45c0-3-2-5-5-5c-2,0-3.5,0.7-4.5,2.1c0.9-1.1,2.3-1.7,4-1.7c3,0,5,2,5,5V53.9z   M419.2,53.9h0.5v-8.3c0-0.6,0.1-1.1,0.2-1.6l-0.1,0.2l-0.5-1.3c-0.7-1.8-2.4-2.8-4.6-2.8c-1.5,0-2.8,0.5-3.7,1.4  c0.9-0.6,2-1,3.2-1c3,0,5,2,5,5V53.9z M408.5,53.9h0.5v-8.3c0-0.5,0.1-1,0.2-1.4l-0.2,0.3v-4h-0.5V53.9z"></path></g><g>	<path class="st3" d="M435.3,22.9v7h-2.2v-7h-2.6v-1.8h7.5v1.8H435.3z"></path>	<path class="st3" d="M446.7,29.9l0-5.7l-2.1,4.8h-1.5l-2.1-4.8v5.7h-2v-8.8h2.5l2.4,5.2l2.4-5.2h2.4v8.8H446.7z"></path></g></svg>